<?xml version="1.0" encoding="UTF-8" standalone="no"?>
<!-- Generator: Adobe Illustrator 16.0.0, SVG Export Plug-In . SVG Version: 6.00 Build 0)  -->

<svg
   version="1.1"
   id="Layer_1"
   x="0px"
   y="0px"
   width="14.999999"
   height="15"
   viewBox="0 0 14.999999 15"
   enable-background="new 0 0 512 512"
   xml:space="preserve"
   sodipodi:docname="icon-phone-light.svg"
   inkscape:version="1.2 (dc2aedaf03, 2022-05-15)"
   xmlns:inkscape="http://www.inkscape.org/namespaces/inkscape"
   xmlns:sodipodi="http://sodipodi.sourceforge.net/DTD/sodipodi-0.dtd"
   xmlns="http://www.w3.org/2000/svg"
   xmlns:svg="http://www.w3.org/2000/svg"><defs
   id="defs157" /><sodipodi:namedview
   id="namedview155"
   pagecolor="#505050"
   bordercolor="#eeeeee"
   borderopacity="1"
   inkscape:showpageshadow="0"
   inkscape:pageopacity="0"
   inkscape:pagecheckerboard="0"
   inkscape:deskcolor="#505050"
   showgrid="false"
   inkscape:zoom="24.85"
   inkscape:cx="10.080483"
   inkscape:cy="10.080483"
   inkscape:window-width="1366"
   inkscape:window-height="699"
   inkscape:window-x="0"
   inkscape:window-y="0"
   inkscape:window-maximized="1"
   inkscape:current-layer="Layer_1" />
<path
   d="m 14.932517,11.956528 -0.07466,-0.224999 C 14.681025,11.20585 14.101404,10.657595 13.568968,10.513151 L 11.598292,9.9747058 C 11.063875,9.8292868 10.301546,10.024821 9.9105418,10.415869 L 9.1973473,11.129226 C 6.6053328,10.428666 4.5727901,8.3957189 3.8733334,5.8037329 L 4.5865594,5.0903757 C 4.9775636,4.6993002 5.1730346,3.937838 5.0276419,3.4033227 L 4.4902714,1.431311 C 4.3448786,0.89777076 3.7957189,0.31807479 3.2711419,0.14316204 L 3.0461839,0.0675133 C 2.5206012,-0.1073987 1.7710354,0.0694633 1.3800627,0.46053879 L 0.31317869,1.5285927 C 0.12258044,1.718219 7.6544286e-4,2.2605942 7.6544286e-4,2.262575 -0.03654706,5.6504524 1.2916324,8.9145126 3.6876409,11.310992 c 2.3901307,2.390568 5.6413314,3.717045 9.0187801,3.688558 0.0177,0 0.575693,-0.119889 0.766259,-0.309516 l 1.066883,-1.067078 c 0.390973,-0.391044 0.567802,-1.140749 0.392954,-1.666428 z"
   id="path152"
   style="stroke-width:0.0314391;fill:#ffffff;fill-opacity:1" />
</svg>
