<?xml version="1.0" encoding="UTF-8" standalone="no"?>
<svg
   width="33.814999"
   height="26"
   version="1.1"
   id="svg3586"
   sodipodi:docname="icon-WhatsApp-darck.svg"
   inkscape:version="1.2 (dc2aedaf03, 2022-05-15)"
   xmlns:inkscape="http://www.inkscape.org/namespaces/inkscape"
   xmlns:sodipodi="http://sodipodi.sourceforge.net/DTD/sodipodi-0.dtd"
   xmlns="http://www.w3.org/2000/svg"
   xmlns:svg="http://www.w3.org/2000/svg">
  <defs
     id="defs3590" />
  <sodipodi:namedview
     id="namedview3588"
     pagecolor="#505050"
     bordercolor="#eeeeee"
     borderopacity="1"
     inkscape:showpageshadow="0"
     inkscape:pageopacity="0"
     inkscape:pagecheckerboard="0"
     inkscape:deskcolor="#505050"
     showgrid="false"
     inkscape:zoom="11.2625"
     inkscape:cx="16.825749"
     inkscape:cy="13.18535"
     inkscape:window-width="1366"
     inkscape:window-height="699"
     inkscape:window-x="0"
     inkscape:window-y="0"
     inkscape:window-maximized="1"
     inkscape:current-layer="svg3586" />
  <rect
     style="fill:#25d366;fill-opacity:1;stroke:#59aaf5;stroke-width:0"
     id="rect2654"
     width="33.814999"
     height="25.999998"
     x="5e-07"
     y="5e-07"
     ry="4.1363635" />
  <path
     fill-rule="evenodd"
     clip-rule="evenodd"
     d="m 16.963384,3.4449999 c 2.4186,0.0117 4.7528,0.9614 6.4988,2.6351 1.7881,1.7142 2.8185,4.0127001 2.9086,6.4880001 0.088,2.4173 -0.7559,4.7918 -2.3566,6.6052 -1.7555,1.9889 -4.1975,3.1312 -6.835,3.2069 a 9.4172,9.4172 0 0 1 -0.2709,0.0039 c -1.4211,0 -2.8291,-0.3205 -4.1043,-0.9341 l -4.9567999,1.1024 a 0.0728,0.0728 0 0 1 -0.086,-0.0811 l 0.8373,-5.012 c -0.7146,-1.3057 -1.1135,-2.7768 -1.1565,-4.2731 -0.0724,-2.5285 0.844,-4.9337001 2.5804999,-6.7728001 1.8005,-1.9069 4.2593,-2.9684 6.894,-2.9684 z m -0.0527,1.6431 c -0.0757,0 -0.1513,0.0011 -0.2274,0.0033 -4.3138,0.1237 -7.7225999,3.7339 -7.5987999,8.0476001 0.0378,1.3172 0.4088,2.6102 1.0730999,3.7391 l 0.1442,0.2447 -0.6203999,3.401 3.3655999,-0.7945 0.2541,0.1323 c 1.109,0.577 2.3515,0.8794 3.607,0.8794 0.0746,0 0.1493,-0.001 0.2239,-0.0032 4.3138,-0.1237 7.7226,-3.7338 7.5989,-8.0476 -0.1216,-4.2376001 -3.6078,-7.6021001 -7.8202,-7.6021001 z m -3.2738,3.2521 c 0.1583,0.0048 0.3169,0.0093 0.4551,0.0195 0.1692,0.0121 0.3563,0.0258 0.5222,0.4273 0.1968,0.4768 0.6224,1.6671001 0.6782,1.7878001 0.0557,0.1207 0.0911,0.2608 0.007,0.4172 -0.0841,0.1562 -0.1268,0.2541 -0.2496,0.3892 -0.123,0.1353 -0.2593,0.3023 -0.3692,0.4055 -0.1229,0.115 -0.2506,0.24 -0.1192,0.4821 0.1313,0.2423 0.5842,1.0354 1.2712,1.6875 0.883,0.838 1.5911,1.1145 1.8724,1.2457 0.1014,0.0474 0.1858,0.0698 0.2595,0.0698 0.1011,0 0.1821,-0.0423 0.2593,-0.1206 0.148,-0.15 0.5933,-0.6697 0.7808,-0.9087 0.0981,-0.1251 0.1869,-0.1694 0.2834,-0.1694 0.0772,0 0.1593,0.0284 0.255,0.0666 0.2154,0.086 1.3659,0.6972 1.5999,0.8235 0.234,0.1261 0.3905,0.1905 0.4469,0.2914 0.0564,0.1013 0.0416,0.5772 -0.1734,1.1264 -0.2151,0.5492 -1.2016,1.055 -1.6385,1.0812 -0.1279,0.0077 -0.2537,0.0256 -0.4176,0.0256 -0.3958,0 -1.0132,-0.1043 -2.4155,-0.7082 -2.3858,-1.0274 -3.8347,-3.552 -3.9487,-3.7142 -0.1137,-0.1625 -0.9306,-1.3193 -0.8946,-2.4894 0.0359,-1.1700001 0.6675,-1.7265001 0.8927,-1.9578001 0.2158,-0.2218 0.4631,-0.2784 0.6228,-0.2784 z"
     fill="#ffffff"
     id="path1188" />
</svg>
