<?xml version="1.0" encoding="UTF-8" standalone="no"?>
<!-- Generator: Adobe Illustrator 16.0.0, SVG Export Plug-In . SVG Version: 6.00 Build 0)  -->

<svg
   version="1.1"
   id="Layer_1"
   x="0px"
   y="0px"
   width="20"
   height="26"
   viewBox="0 0 20 26"
   enable-background="new 0 0 512 512"
   xml:space="preserve"
   sodipodi:docname="Icon-phone-darck.svg"
   inkscape:version="1.2 (dc2aedaf03, 2022-05-15)"
   xmlns:inkscape="http://www.inkscape.org/namespaces/inkscape"
   xmlns:sodipodi="http://sodipodi.sourceforge.net/DTD/sodipodi-0.dtd"
   xmlns="http://www.w3.org/2000/svg"
   xmlns:svg="http://www.w3.org/2000/svg"><defs
   id="defs157" /><sodipodi:namedview
   id="namedview155"
   pagecolor="#505050"
   bordercolor="#eeeeee"
   borderopacity="1"
   inkscape:showpageshadow="0"
   inkscape:pageopacity="0"
   inkscape:pagecheckerboard="0"
   inkscape:deskcolor="#505050"
   showgrid="false"
   inkscape:zoom="12.425"
   inkscape:cx="10.503018"
   inkscape:cy="11.38833"
   inkscape:window-width="1366"
   inkscape:window-height="699"
   inkscape:window-x="0"
   inkscape:window-y="0"
   inkscape:window-maximized="1"
   inkscape:current-layer="Layer_1" />
<path
   d="m 19.910023,18.942038 -0.09955,-0.299999 c -0.235772,-0.700905 -1.0086,-1.431912 -1.718515,-1.624504 L 15.46439,16.299608 c -0.712556,-0.193892 -1.728995,0.06682 -2.250334,0.588218 L 12.26313,17.838968 C 8.8071107,16.904888 6.0970537,14.194292 5.1644447,10.738311 l 0.950968,-0.9511432 c 0.521339,-0.521434 0.781967,-1.536717 0.58811,-2.2494041 l -0.716494,-2.629349 c -0.193857,-0.711387 -0.92607,-1.484315 -1.625506,-1.717532 l -0.299944,-0.100865 c -0.700777,-0.233216 -1.7001981,0.0026 -2.221495,0.524034 l -1.4225121,1.424072 c -0.25413101,0.252835 -0.41655101,0.976002 -0.41655101,0.9786431 -0.04975,4.5171702 1.72115601,8.8692502 4.91583411,12.0645562 3.186841,3.187424 7.5217753,4.95606 12.0250403,4.918078 0.0236,0 0.767591,-0.159852 1.021679,-0.412688 l 1.422511,-1.422771 c 0.521297,-0.521392 0.757069,-1.520999 0.523938,-2.221904 z"
   id="path152"
   style="fill:#59aaf5;fill-opacity:1;stroke-width:0.0419188" />
</svg>
