<?xml version="1.0" encoding="UTF-8" standalone="no"?>
<svg
   width="26.666668"
   height="26"
   version="1.1"
   id="svg6404"
   sodipodi:docname="icon-youtube-darck.svg"
   inkscape:version="1.2 (dc2aedaf03, 2022-05-15)"
   xmlns:inkscape="http://www.inkscape.org/namespaces/inkscape"
   xmlns:sodipodi="http://sodipodi.sourceforge.net/DTD/sodipodi-0.dtd"
   xmlns="http://www.w3.org/2000/svg"
   xmlns:svg="http://www.w3.org/2000/svg">
  <defs
     id="defs6408" />
  <sodipodi:namedview
     id="namedview6406"
     pagecolor="#505050"
     bordercolor="#eeeeee"
     borderopacity="1"
     inkscape:showpageshadow="0"
     inkscape:pageopacity="0"
     inkscape:pagecheckerboard="0"
     inkscape:deskcolor="#505050"
     showgrid="false"
     inkscape:zoom="15.703663"
     inkscape:cx="15.12386"
     inkscape:cy="13.340837"
     inkscape:window-width="1366"
     inkscape:window-height="699"
     inkscape:window-x="0"
     inkscape:window-y="0"
     inkscape:window-maximized="1"
     inkscape:current-layer="svg6404" />
  <path
     d="M 26.124191,6.144455 A 3.3389713,3.5769301 0 0 0 23.776519,3.6237612 C 21.689995,3.0100023 13.342565,3.0000108 13.342565,3.0000108 c 0,0 -8.3460943,-0.00999 -10.4339506,0.576648 A 3.4109205,3.6540068 0 0 0 0.55561215,6.1144808 C 0.00533474,8.3497053 5.1708151e-6,12.985726 5.1708151e-6,12.985726 c 0,0 -0.00532955082,4.65886 0.5409506691849,6.871247 0.30644989,1.223236 1.20581376,2.189548 2.34900506,2.519265 2.1078422,0.613759 10.4326201,0.623751 10.4326201,0.623751 0,0 8.347427,0.01 10.433951,-0.57522 a 3.3509629,3.5897762 0 0 0 2.354335,-2.516412 c 0.551609,-2.233797 0.555606,-6.868391 0.555606,-6.868391 0,0 0.02665,-4.6602865 -0.542282,-6.895511 z m -15.451736,11.136157 0.0067,-8.5640787 6.937759,4.2891757 z"
     id="path6402"
     style="fill:#59aaf5;fill-opacity:1;stroke-width:1.37905" />
</svg>
