<?xml version="1.0" encoding="UTF-8" standalone="no"?>
<!-- Created with Inkscape (http://www.inkscape.org/) -->

<svg
   width="200"
   height="60.000004"
   viewBox="0 0 52.916665 15.875001"
   version="1.1"
   id="svg5"
   inkscape:version="1.2 (dc2aedaf03, 2022-05-15)"
   sodipodi:docname="logo.svg"
   xmlns:inkscape="http://www.inkscape.org/namespaces/inkscape"
   xmlns:sodipodi="http://sodipodi.sourceforge.net/DTD/sodipodi-0.dtd"
   xmlns:xlink="http://www.w3.org/1999/xlink"
   xmlns="http://www.w3.org/2000/svg"
   xmlns:svg="http://www.w3.org/2000/svg">
  <sodipodi:namedview
     id="namedview7"
     pagecolor="#505050"
     bordercolor="#eeeeee"
     borderopacity="1"
     inkscape:showpageshadow="0"
     inkscape:pageopacity="0"
     inkscape:pagecheckerboard="0"
     inkscape:deskcolor="#505050"
     inkscape:document-units="px"
     showgrid="false"
     inkscape:zoom="1"
     inkscape:cx="399.5"
     inkscape:cy="158.5"
     inkscape:window-width="1366"
     inkscape:window-height="699"
     inkscape:window-x="0"
     inkscape:window-y="0"
     inkscape:window-maximized="1"
     inkscape:current-layer="layer1" />
  <defs
     id="defs2">
    <linearGradient
       id="linear-gradient"
       x1="104.12"
       y1="230.53999"
       x2="151.94"
       y2="193.21001"
       gradientUnits="userSpaceOnUse">
      <stop
         offset="0"
         stop-color="#fff"
         stop-opacity="0"
         id="stop6669" />
      <stop
         offset="0.98"
         stop-color="#0800bf"
         id="stop6671" />
    </linearGradient>
    <linearGradient
       id="linear-gradient-2"
       x1="83.230003"
       y1="179.7"
       x2="129.78999"
       y2="132.33"
       xlink:href="#linear-gradient" />
    <linearGradient
       id="linear-gradient-3"
       x1="175.78"
       y1="221.98"
       x2="199.13"
       y2="151.92"
       xlink:href="#linear-gradient" />
    <linearGradient
       id="linear-gradient-4"
       x1="253.03"
       y1="255.50999"
       x2="276.60001"
       y2="236.50999"
       xlink:href="#linear-gradient" />
  </defs>
  <g
     inkscape:label="Layer 1"
     inkscape:groupmode="layer"
     id="layer1">
    <g
       id="g952"
       transform="matrix(1.0298352,0,0,1,-172.12107,-168.40688)">
      <path
         id="path12326"
         style="fill:#ffffff;stroke-width:0.0913114"
         d="m 172.36708,171.05309 a 1.2583442,1.2042111 0 0 0 -0.66173,0.18316 1.2583442,1.2042111 0 0 0 -0.4003,1.65932 1.2583442,1.2042111 0 0 0 0.26912,0.29164 l 1.78552,1.8513 a 0.4718791,0.45157918 0 0 0 0.0442,0.0876 0.4718791,0.45157918 0 0 0 0.65038,0.14376 0.4718791,0.45157918 0 0 0 0.14992,-0.62239 0.4718791,0.45157918 0 0 0 -0.005,-0.008 l -0.57296,-2.48515 a 1.2583442,1.2042111 0 0 0 -0.18647,-0.53537 h -3.1e-4 a 1.2583442,1.2042111 0 0 0 -1.07217,-0.56624 z m 8.66188,0.79878 c -0.5446,0.0122 -1.41875,0.49889 -1.66449,1.06663 -0.0856,0.19787 -0.15801,0.25521 -0.26726,0.2105 -0.79555,-0.32555 -1.06146,-0.3599 -1.62701,-0.20961 -0.66429,0.17652 -1.45534,1.07203 -1.46172,1.6549 -0.002,0.1435 -0.1659,0.26507 -0.70198,0.51861 -0.38503,0.18212 -0.70014,0.3836 -0.70014,0.44776 0,0.33042 0.77531,1.18724 1.50781,1.66666 0.4188,0.27412 0.54818,0.32158 0.62793,0.22962 0.0552,-0.0637 0.20474,-0.34069 0.3318,-0.61562 l 0.23072,-0.5001 0.54099,-0.0603 c 0.73432,-0.082 1.44045,-0.39824 1.7164,-0.7685 0.19677,-0.26401 0.22516,-0.40112 0.22642,-1.09574 0.002,-0.73843 0.0169,-0.80385 0.22549,-0.93638 0.21103,-0.13408 0.6587,-0.1572 1.54651,-0.0802 0.22865,0.0198 0.28534,-0.0127 0.30967,-0.17669 0.022,-0.14842 -0.0343,-0.22404 -0.21597,-0.29018 -0.55991,-0.20371 -1.35906,0.008 -1.81255,0.47834 -0.2234,0.23212 -0.22618,0.23256 -0.3579,0.0527 -0.29156,-0.39833 0.45029,-0.97699 1.25342,-0.97754 0.51399,-3.5e-4 0.81087,-0.16834 0.71581,-0.40541 -0.0553,-0.13793 -0.19261,-0.20223 -0.37234,-0.20874 -0.0169,-5.7e-4 -0.0338,-9.6e-4 -0.0513,-5.7e-4 z m -10.07444,0.0814 a 1.2583442,1.2042111 0 0 0 -0.92748,0.39836 1.2583442,1.2042111 0 0 0 0.0931,1.70078 1.2583442,1.2042111 0 0 0 0.34285,0.20961 l 2.24941,1.30859 a 0.4718791,0.45157918 0 0 0 0.0679,0.0727 0.4718791,0.45157918 0 0 0 0.66634,-0.0334 0.4718791,0.45157918 0 0 0 0.0989,-0.16493 0.4718791,0.45157918 0 0 1 -0.34622,-0.20814 0.4718791,0.45157918 0 0 1 -0.0439,-0.0879 l -1.78553,-1.851 a 1.2583442,1.2042111 0 0 1 -0.26912,-0.29193 1.2583442,1.2042111 0 0 1 -0.11397,-1.05134 1.2583442,1.2042111 0 0 0 -0.0323,-9.4e-4 z m 7.60229,2.05387 a 0.44903525,0.42750447 0 0 1 0.44915,0.42746 0.44903525,0.42750447 0 0 1 -0.44915,0.42747 0.44903525,0.42750447 0 0 1 -0.44914,-0.42747 0.44903525,0.42750447 0 0 1 0.44914,-0.42746 z m 0.1791,1.54789 h 0.0326 c 0.004,0.0107 -0.008,0.0245 -0.0326,0.0423 z m -4.7409,0.32075 -0.34684,0.30428 c -0.32208,0.28231 -0.33983,0.32344 -0.24732,0.57741 0.26745,0.73418 1.6487,2.07092 2.13974,2.07092 0.0971,0 0.28953,-0.14158 0.42764,-0.31488 0.13811,-0.17329 0.23505,-0.32654 0.21506,-0.34045 -0.02,-0.0138 -0.25748,-0.15814 -0.52779,-0.32045 -0.61159,-0.36723 -1.19979,-0.99084 -1.46111,-1.54995 z m -1.17387,1.34503 c -0.0322,-1.8e-4 -0.15127,0.20638 -0.26481,0.45893 -0.19723,0.43874 -0.19983,0.4737 -0.0531,0.78174 0.22979,0.48254 1.21288,1.43991 1.47647,1.43794 0.0624,-3.2e-4 0.29532,-0.10504 0.51765,-0.23255 l 0.40429,-0.23197 -0.46204,-0.29782 c -0.57448,-0.37024 -1.18034,-1.03696 -1.39598,-1.53642 -0.0901,-0.20862 -0.19025,-0.37967 -0.22243,-0.37985 z m -0.71272,2.16088 -0.0458,0.33075 c -0.0467,0.3331 0.0674,1.867 0.14439,1.94067 0.0228,0.0218 0.0929,-0.0799 0.15606,-0.22579 0.0631,-0.14585 0.27345,-0.42941 0.46727,-0.63033 l 0.35207,-0.36545 -0.53639,-0.52477 z" />
      <text
         xml:space="preserve"
         style="font-size:6.58411px;fill:#ffffff;fill-opacity:1;stroke:#000000;stroke-width:0"
         x="188.52101"
         y="173.01573"
         id="text1650-36-9"
         transform="scale(0.97093941,1.0299304)"><tspan
           sodipodi:role="line"
           id="tspan1648-7-2"
           style="font-size:6.58411px;fill:#ffffff;fill-opacity:1;stroke-width:0"
           x="188.52101"
           y="173.01573">BeesLearn</tspan></text>
    </g>
  </g>
</svg>
