<?xml version="1.0" encoding="UTF-8" standalone="no"?>
<!-- Created with Inkscape (http://www.inkscape.org/) -->

<svg
   width="32.000004"
   height="32.000004"
   viewBox="0 0 8.4666674 8.4666677"
   version="1.1"
   id="svg5"
   inkscape:version="1.2 (dc2aedaf03, 2022-05-15)"
   sodipodi:docname="logotitle.svg"
   xml:space="preserve"
   xmlns:inkscape="http://www.inkscape.org/namespaces/inkscape"
   xmlns:sodipodi="http://sodipodi.sourceforge.net/DTD/sodipodi-0.dtd"
   xmlns="http://www.w3.org/2000/svg"
   xmlns:svg="http://www.w3.org/2000/svg"><sodipodi:namedview
     id="namedview7"
     pagecolor="#505050"
     bordercolor="#eeeeee"
     borderopacity="1"
     inkscape:showpageshadow="0"
     inkscape:pageopacity="0"
     inkscape:pagecheckerboard="0"
     inkscape:deskcolor="#505050"
     inkscape:document-units="px"
     showgrid="false"
     inkscape:zoom="11.218276"
     inkscape:cx="13.014477"
     inkscape:cy="11.365382"
     inkscape:window-width="1366"
     inkscape:window-height="699"
     inkscape:window-x="0"
     inkscape:window-y="0"
     inkscape:window-maximized="1"
     inkscape:current-layer="layer1" /><defs
     id="defs2"><linearGradient
       id="linearGradient661"
       inkscape:swatch="gradient"><stop
         style="stop-color:#000000;stop-opacity:1;"
         offset="0"
         id="stop657" /><stop
         style="stop-color:#000000;stop-opacity:0;"
         offset="1"
         id="stop659" /></linearGradient></defs><g
     inkscape:label="Layer 1"
     inkscape:groupmode="layer"
     id="layer1"
     transform="translate(-168.01044,-170.65623)"><circle
       style="fill:#0000ff;stroke:#ffffff;stroke-width:0"
       id="path663"
       cx="172.24377"
       cy="174.88956"
       r="4.2333331" /><path
       id="path12326-3"
       style="fill:#ffff00;stroke-width:0.0681198"
       d="m 169.86317,170.65623 a 0.87536842,0.96339979 0 0 0 -0.46033,0.14654 0.87536842,0.96339979 0 0 0 -0.27847,1.32749 0.87536842,0.96339979 0 0 0 0.18721,0.23332 l 1.2421,1.48109 a 0.32826318,0.36127493 0 0 0 0.0308,0.0701 0.32826318,0.36127493 0 0 0 0.45244,0.11501 0.32826318,0.36127493 0 0 0 0.10429,-0.49793 0.32826318,0.36127493 0 0 0 -0.003,-0.006 l -0.39858,-1.98818 a 0.87536842,0.96339979 0 0 0 -0.12972,-0.42831 h -2.1e-4 a 0.87536842,0.96339979 0 0 0 -0.74586,-0.45301 z m 6.02565,0.63905 c -0.37885,0.01 -0.98696,0.39913 -1.15791,0.85333 -0.0596,0.1583 -0.10992,0.20417 -0.18592,0.16841 -0.55342,-0.26045 -0.7384,-0.28794 -1.13183,-0.16769 -0.46211,0.14121 -1.01241,0.85764 -1.01685,1.32396 -0.001,0.1148 -0.1154,0.21205 -0.48833,0.4149 -0.26784,0.1457 -0.48705,0.30689 -0.48705,0.35822 0,0.26434 0.53934,0.94982 1.04891,1.33338 0.29134,0.2193 0.38134,0.25726 0.43682,0.18369 0.0384,-0.051 0.14243,-0.27256 0.23082,-0.49251 l 0.1605,-0.4001 0.37634,-0.0482 c 0.51083,-0.0656 1.00205,-0.31861 1.19401,-0.61483 0.13688,-0.21121 0.15663,-0.3209 0.15751,-0.87661 0.001,-0.59077 0.0118,-0.64311 0.15686,-0.74913 0.14681,-0.10728 0.45823,-0.12577 1.07583,-0.0641 0.15907,0.0159 0.1985,-0.0101 0.21543,-0.14135 0.0153,-0.11875 -0.0239,-0.17925 -0.15024,-0.23215 -0.3895,-0.16298 -0.94543,0.006 -1.26091,0.38267 -0.1554,0.18571 -0.15734,0.18606 -0.24897,0.0421 -0.20282,-0.31869 0.31325,-0.78162 0.87194,-0.78206 0.35756,-2.9e-4 0.56409,-0.13469 0.49796,-0.32435 -0.0385,-0.11034 -0.13399,-0.16178 -0.25902,-0.16699 -0.0118,-4.6e-4 -0.0235,-7.6e-4 -0.0357,-4.6e-4 z m -7.0083,0.0651 a 0.87536842,0.96339979 0 0 0 -0.6452,0.31871 0.87536842,0.96339979 0 0 0 0.0648,1.36067 0.87536842,0.96339979 0 0 0 0.2385,0.16768 l 1.5648,1.0469 a 0.32826318,0.36127493 0 0 0 0.0472,0.0581 0.32826318,0.36127493 0 0 0 0.46354,-0.0267 0.32826318,0.36127493 0 0 0 0.0688,-0.13195 0.32826318,0.36127493 0 0 1 -0.24085,-0.16652 0.32826318,0.36127493 0 0 1 -0.0305,-0.0703 l -1.24211,-1.48085 a 0.87536842,0.96339979 0 0 1 -0.18721,-0.23356 0.87536842,0.96339979 0 0 1 -0.0793,-0.84109 0.87536842,0.96339979 0 0 0 -0.0225,-7.5e-4 z m 5.28854,1.64315 a 0.31237183,0.34201454 0 0 1 0.31245,0.34199 0.31237183,0.34201454 0 0 1 -0.31245,0.34199 0.31237183,0.34201454 0 0 1 -0.31244,-0.34199 0.31237183,0.34201454 0 0 1 0.31244,-0.34199 z m 0.12459,1.23836 h 0.0227 c 0.003,0.009 -0.006,0.0196 -0.0227,0.0338 z m -3.29801,0.2566 -0.24128,0.24343 c -0.22405,0.22586 -0.2364,0.25876 -0.17205,0.46195 0.18606,0.58737 1.14692,1.65678 1.48852,1.65678 0.0675,0 0.20141,-0.11327 0.29748,-0.2519 0.0961,-0.13865 0.16352,-0.26125 0.14961,-0.27238 -0.0139,-0.011 -0.17911,-0.12651 -0.36716,-0.25636 -0.42545,-0.2938 -0.83463,-0.7927 -1.01642,-1.24 z m -0.8166,1.07606 c -0.0224,-1.4e-4 -0.10523,0.1651 -0.18422,0.36716 -0.1372,0.351 -0.13901,0.37897 -0.0369,0.62541 0.15986,0.38605 0.84375,1.15196 1.02711,1.15039 0.0434,-2.7e-4 0.20544,-0.084 0.36011,-0.18605 l 0.28124,-0.18558 -0.32142,-0.23827 c -0.39964,-0.2962 -0.8211,-0.82958 -0.97111,-1.22917 -0.0627,-0.16691 -0.13235,-0.30374 -0.15474,-0.30389 z m -0.49581,1.72876 -0.0319,0.26461 c -0.0325,0.26649 0.0469,1.49365 0.10045,1.55258 0.0159,0.0175 0.0646,-0.0639 0.10856,-0.18064 0.0439,-0.11667 0.19023,-0.34354 0.32506,-0.50428 l 0.24492,-0.29235 -0.37314,-0.41985 z" /></g></svg>
