<?xml version="1.0" encoding="UTF-8" standalone="no"?>
<svg
   width="15.000067"
   height="14.999916"
   version="1.1"
   id="svg3586"
   sodipodi:docname="whatsapp.svg"
   inkscape:version="1.2 (dc2aedaf03, 2022-05-15)"
   xmlns:inkscape="http://www.inkscape.org/namespaces/inkscape"
   xmlns:sodipodi="http://sodipodi.sourceforge.net/DTD/sodipodi-0.dtd"
   xmlns="http://www.w3.org/2000/svg"
   xmlns:svg="http://www.w3.org/2000/svg">
  <defs
     id="defs3590" />
  <sodipodi:namedview
     id="namedview3588"
     pagecolor="#505050"
     bordercolor="#eeeeee"
     borderopacity="1"
     inkscape:showpageshadow="0"
     inkscape:pageopacity="0"
     inkscape:pagecheckerboard="0"
     inkscape:deskcolor="#505050"
     showgrid="false"
     inkscape:zoom="22.208333"
     inkscape:cx="7.8348969"
     inkscape:cy="9.2082553"
     inkscape:window-width="1366"
     inkscape:window-height="699"
     inkscape:window-x="0"
     inkscape:window-y="0"
     inkscape:window-maximized="1"
     inkscape:current-layer="svg3586" />
  <path
     fill-rule="evenodd"
     clip-rule="evenodd"
     d="M 12.781222,2.2135832 A 7.3584715,7.3239336 0 0 0 7.5422609,0.05146669 c -4.0822649,0 -7.40549868,3.30681461 -7.40714874,7.37156081 0,1.2990772 0.34073868,2.5669501 0.98838974,3.6853705 L 0.07323466,14.927617 3.9995679,13.901988 a 7.4096237,7.3748456 0 0 0 3.5393923,0.897527 h 0.00331 c 4.0814388,0 7.4046738,-3.306813 7.4063238,-7.3715605 A 7.3642467,7.3296816 0 0 0 12.781222,2.2135832 M 7.5422609,13.555458 h -0.00248 A 6.1431975,6.1143635 0 0 1 4.4063092,12.70063 L 4.1819001,12.5676 1.8520061,13.176081 2.4732564,10.915426 2.3272253,10.683857 A 6.1448475,6.116006 0 0 1 1.3858625,7.4230275 c 0.00165,-3.3782556 2.7630362,-6.126681 6.1588735,-6.126681 a 6.1159712,6.0872653 0 0 1 4.35205,1.7967001 6.1217467,6.0930134 0 0 1 1.801047,4.3349079 c -0.0016,3.3782565 -2.763035,6.1275035 -6.1555721,6.1275035 M 10.919122,8.9659888 C 10.733488,8.8731969 9.8243026,8.428128 9.6543453,8.3665411 9.4852137,8.3049511 9.3622837,8.2745719 9.2385288,8.4585118 9.1147745,8.6424517 8.760009,9.0571375 8.6519291,9.1803124 8.5438507,9.3034862 8.4357709,9.3182672 8.2509632,9.2262942 8.0661565,9.1343265 7.4696575,8.9397111 6.762604,8.3123446 6.2123069,7.8237541 5.841042,7.2210219 5.7329626,7.0362607 5.6248832,6.8514996 5.7214122,6.7521391 5.8146408,6.6601691 5.8979696,6.5780531 5.9994483,6.4450251 6.091852,6.3374529 6.1842559,6.2298808 6.214782,6.1535129 6.2766594,6.0303387 6.3385371,5.9071646 6.3080108,5.7995926 6.2609844,5.7076225 6.214782,5.6148315 5.8443421,4.7082698 5.690061,4.3395686 5.5407298,3.9823637 5.3880987,4.029991 5.2742441,4.0250639 A 7.9615708,7.9242021 0 0 0 4.9203048,4.0184952 0.68147745,0.67827886 0 0 0 4.42611,4.2484204 C 4.2561531,4.433184 3.7784589,4.8782532 3.7784589,5.7848149 c 0,0.9065617 0.6633265,1.78274 0.7557305,1.9059139 0.092404,0.1231748 1.3052024,1.983105 3.1615273,2.7812722 0.4422176,0.189689 0.7870815,0.303009 1.0552172,0.38841 0.4430431,0.140419 0.8464847,0.11989 1.1657717,0.07308 0.3555894,-0.05255 1.0948204,-0.445067 1.2491004,-0.875357 0.154283,-0.4302873 0.154283,-0.7989889 0.10808,-0.8761786 -0.04621,-0.077187 -0.170782,-0.1239951 -0.354764,-0.2159651"
     id="path3584"
     style="fill:#ffffff;fill-opacity:1;stroke:#ffffff;stroke-width:0.102886;stroke-dasharray:none;stroke-opacity:1" />
</svg>
