<?xml version="1.0" encoding="UTF-8" standalone="no"?>
<svg
   width="20"
   height="15"
   version="1.1"
   id="svg6404"
   sodipodi:docname="youtube.svg"
   inkscape:version="1.2 (dc2aedaf03, 2022-05-15)"
   xmlns:inkscape="http://www.inkscape.org/namespaces/inkscape"
   xmlns:sodipodi="http://sodipodi.sourceforge.net/DTD/sodipodi-0.dtd"
   xmlns="http://www.w3.org/2000/svg"
   xmlns:svg="http://www.w3.org/2000/svg">
  <defs
     id="defs6408" />
  <sodipodi:namedview
     id="namedview6406"
     pagecolor="#505050"
     bordercolor="#eeeeee"
     borderopacity="1"
     inkscape:showpageshadow="0"
     inkscape:pageopacity="0"
     inkscape:pagecheckerboard="0"
     inkscape:deskcolor="#505050"
     showgrid="false"
     inkscape:zoom="22.208333"
     inkscape:cx="9.0956849"
     inkscape:cy="7.1369607"
     inkscape:window-width="1366"
     inkscape:window-height="699"
     inkscape:window-x="0"
     inkscape:window-y="0"
     inkscape:window-maximized="1"
     inkscape:current-layer="svg6404" />
  <path
     d="M 19.593141,2.3583413 A 2.5042285,2.6826976 0 0 0 17.832387,0.46782093 C 16.267494,0.0075017 10.006922,8.1314065e-6 10.006922,8.1314065e-6 c 0,0 -6.2595713,-0.00749356141 -7.8254636,0.4324859685935 A 2.5581904,2.7405051 0 0 0 0.4167067,2.3358606 C 0.00399864,4.012279 1.4641232e-6,7.4892949 1.4641232e-6,7.4892949 c 0,0 -0.00399716412,3.4941451 0.4057130058768,5.1534351 0.22983742,0.917427 0.90436033,1.642161 1.76175383,1.889449 1.5808817,0.460319 7.824465,0.467813 7.824465,0.467813 0,0 6.2605707,0.0075 7.8254637,-0.431415 a 2.5132222,2.6923322 0 0 0 1.765751,-1.887309 c 0.413707,-1.675348 0.416705,-5.1512937 0.416705,-5.1512937 0,0 0.01999,-3.4952146 -0.406712,-5.171633 z M 8.0043393,10.710459 8.0093393,4.2874 13.212659,7.504282 Z"
     id="path6402"
     style="fill:#ffffff;stroke-width:1.03429" />
</svg>
